<svg width="24" height="24" viewBox="0 0 24 24" fill="none" xmlns="http://www.w3.org/2000/svg">
<path d="M17.7508 9.61107V7.48667C17.7508 7.23903 17.5498 7.03806 17.3024 7.03806H14.3319V5.58118C14.3319 5.33379 14.1312 5.13283 13.8839 5.13283H10.5212C10.2736 5.13283 10.0726 5.33379 10.0726 5.58118V7.03806H7.1024C6.85476 7.03806 6.65405 7.23903 6.65405 7.48667V9.61107C6.65405 9.85845 6.85476 10.0592 7.1024 10.0592H7.23111V19.0317C7.23111 19.2791 7.43181 19.4801 7.6792 19.4801H15.4544C16.4025 19.4801 17.174 18.7089 17.174 17.761V10.0594H17.3021C17.5498 10.0594 17.7508 9.85872 17.7508 9.61107ZM10.9693 6.02953H13.4352V7.03806H10.9693V6.02953ZM16.2775 17.7613C16.2775 18.2147 15.9083 18.5834 15.4547 18.5834H8.12807V10.0594L16.2775 10.0599V17.7613ZM16.8538 9.16272H7.55049V7.93503H10.5212H13.8839H16.8541V9.16272H16.8538Z" fill="#E8563D"/>
<path d="M10.4085 11.8581H9.51184V17.1262H10.4085V11.8581Z" fill="#E8563D"/>
<path d="M12.6504 11.8581H11.7537V17.1262H12.6504V11.8581Z" fill="#E8563D"/>
<path d="M14.8921 11.8581H13.9954V17.1262H14.8921V11.8581Z" fill="#E8563D"/>
</svg>
